<mxfile host="app.diagrams.net" modified="2020-09-15T11:12:12.963Z" agent="5.0 (Windows NT 10.0; Win64; x64) AppleWebKit/537.36 (KHTML, like Gecko) Chrome/85.0.4183.102 Safari/537.36" etag="31Bg8jA91aUtjYaf25NH" version="13.6.9" type="github">
  <diagram id="lrFtgLn-xteoTsVYKMnf" name="Page-1">
    <mxGraphModel dx="782" dy="437" grid="1" gridSize="10" guides="1" tooltips="1" connect="1" arrows="1" fold="1" page="1" pageScale="1" pageWidth="827" pageHeight="1169" math="0" shadow="0">
      <root>
        <mxCell id="0" />
        <mxCell id="1" parent="0" />
        <mxCell id="phsG_xXQN8zb8gZ70Jwh-1" value="" style="shape=table;html=1;whiteSpace=wrap;startSize=0;container=1;collapsible=0;childLayout=tableLayout;rowLines=1;columnLines=1;autosize=0;expand=1;fixedRows=0;" vertex="1" parent="1">
          <mxGeometry x="220" y="100" width="40" height="230" as="geometry" />
        </mxCell>
        <mxCell id="phsG_xXQN8zb8gZ70Jwh-16" style="shape=partialRectangle;html=1;whiteSpace=wrap;collapsible=0;dropTarget=0;pointerEvents=0;fillColor=none;top=0;left=0;bottom=0;right=0;points=[[0,0.5],[1,0.5]];portConstraint=eastwest;" vertex="1" parent="phsG_xXQN8zb8gZ70Jwh-1">
          <mxGeometry width="40" height="26" as="geometry" />
        </mxCell>
        <mxCell id="phsG_xXQN8zb8gZ70Jwh-17" style="shape=partialRectangle;html=1;whiteSpace=wrap;connectable=0;fillColor=none;top=0;left=0;bottom=0;right=0;overflow=hidden;" vertex="1" parent="phsG_xXQN8zb8gZ70Jwh-16">
          <mxGeometry width="40" height="26" as="geometry" />
        </mxCell>
        <mxCell id="phsG_xXQN8zb8gZ70Jwh-14" style="shape=partialRectangle;html=1;whiteSpace=wrap;collapsible=0;dropTarget=0;pointerEvents=0;fillColor=none;top=0;left=0;bottom=0;right=0;points=[[0,0.5],[1,0.5]];portConstraint=eastwest;" vertex="1" parent="phsG_xXQN8zb8gZ70Jwh-1">
          <mxGeometry y="26" width="40" height="25" as="geometry" />
        </mxCell>
        <mxCell id="phsG_xXQN8zb8gZ70Jwh-15" style="shape=partialRectangle;html=1;whiteSpace=wrap;connectable=0;fillColor=none;top=0;left=0;bottom=0;right=0;overflow=hidden;" vertex="1" parent="phsG_xXQN8zb8gZ70Jwh-14">
          <mxGeometry width="40" height="25" as="geometry" />
        </mxCell>
        <mxCell id="phsG_xXQN8zb8gZ70Jwh-2" value="" style="shape=partialRectangle;html=1;whiteSpace=wrap;collapsible=0;dropTarget=0;pointerEvents=0;fillColor=none;top=0;left=0;bottom=0;right=0;points=[[0,0.5],[1,0.5]];portConstraint=eastwest;" vertex="1" parent="phsG_xXQN8zb8gZ70Jwh-1">
          <mxGeometry y="51" width="40" height="26" as="geometry" />
        </mxCell>
        <mxCell id="phsG_xXQN8zb8gZ70Jwh-3" value="" style="shape=partialRectangle;html=1;whiteSpace=wrap;connectable=0;fillColor=none;top=0;left=0;bottom=0;right=0;overflow=hidden;" vertex="1" parent="phsG_xXQN8zb8gZ70Jwh-2">
          <mxGeometry width="40" height="26" as="geometry" />
        </mxCell>
        <mxCell id="phsG_xXQN8zb8gZ70Jwh-6" value="" style="shape=partialRectangle;html=1;whiteSpace=wrap;collapsible=0;dropTarget=0;pointerEvents=0;fillColor=none;top=0;left=0;bottom=0;right=0;points=[[0,0.5],[1,0.5]];portConstraint=eastwest;" vertex="1" parent="phsG_xXQN8zb8gZ70Jwh-1">
          <mxGeometry y="77" width="40" height="25" as="geometry" />
        </mxCell>
        <mxCell id="phsG_xXQN8zb8gZ70Jwh-7" value="" style="shape=partialRectangle;html=1;whiteSpace=wrap;connectable=0;fillColor=none;top=0;left=0;bottom=0;right=0;overflow=hidden;" vertex="1" parent="phsG_xXQN8zb8gZ70Jwh-6">
          <mxGeometry width="40" height="25" as="geometry" />
        </mxCell>
        <mxCell id="phsG_xXQN8zb8gZ70Jwh-10" value="" style="shape=partialRectangle;html=1;whiteSpace=wrap;collapsible=0;dropTarget=0;pointerEvents=0;fillColor=none;top=0;left=0;bottom=0;right=0;points=[[0,0.5],[1,0.5]];portConstraint=eastwest;" vertex="1" parent="phsG_xXQN8zb8gZ70Jwh-1">
          <mxGeometry y="102" width="40" height="26" as="geometry" />
        </mxCell>
        <mxCell id="phsG_xXQN8zb8gZ70Jwh-11" value="" style="shape=partialRectangle;html=1;whiteSpace=wrap;connectable=0;fillColor=none;top=0;left=0;bottom=0;right=0;overflow=hidden;" vertex="1" parent="phsG_xXQN8zb8gZ70Jwh-10">
          <mxGeometry width="40" height="26" as="geometry" />
        </mxCell>
        <mxCell id="phsG_xXQN8zb8gZ70Jwh-18" style="shape=partialRectangle;html=1;whiteSpace=wrap;collapsible=0;dropTarget=0;pointerEvents=0;fillColor=none;top=0;left=0;bottom=0;right=0;points=[[0,0.5],[1,0.5]];portConstraint=eastwest;" vertex="1" parent="phsG_xXQN8zb8gZ70Jwh-1">
          <mxGeometry y="128" width="40" height="25" as="geometry" />
        </mxCell>
        <mxCell id="phsG_xXQN8zb8gZ70Jwh-19" style="shape=partialRectangle;html=1;whiteSpace=wrap;connectable=0;fillColor=none;top=0;left=0;bottom=0;right=0;overflow=hidden;" vertex="1" parent="phsG_xXQN8zb8gZ70Jwh-18">
          <mxGeometry width="40" height="25" as="geometry" />
        </mxCell>
        <mxCell id="phsG_xXQN8zb8gZ70Jwh-20" style="shape=partialRectangle;html=1;whiteSpace=wrap;collapsible=0;dropTarget=0;pointerEvents=0;fillColor=none;top=0;left=0;bottom=0;right=0;points=[[0,0.5],[1,0.5]];portConstraint=eastwest;" vertex="1" parent="phsG_xXQN8zb8gZ70Jwh-1">
          <mxGeometry y="153" width="40" height="26" as="geometry" />
        </mxCell>
        <mxCell id="phsG_xXQN8zb8gZ70Jwh-21" style="shape=partialRectangle;html=1;whiteSpace=wrap;connectable=0;fillColor=none;top=0;left=0;bottom=0;right=0;overflow=hidden;" vertex="1" parent="phsG_xXQN8zb8gZ70Jwh-20">
          <mxGeometry width="40" height="26" as="geometry" />
        </mxCell>
        <mxCell id="phsG_xXQN8zb8gZ70Jwh-22" style="shape=partialRectangle;html=1;whiteSpace=wrap;collapsible=0;dropTarget=0;pointerEvents=0;fillColor=none;top=0;left=0;bottom=0;right=0;points=[[0,0.5],[1,0.5]];portConstraint=eastwest;" vertex="1" parent="phsG_xXQN8zb8gZ70Jwh-1">
          <mxGeometry y="179" width="40" height="25" as="geometry" />
        </mxCell>
        <mxCell id="phsG_xXQN8zb8gZ70Jwh-23" style="shape=partialRectangle;html=1;whiteSpace=wrap;connectable=0;fillColor=none;top=0;left=0;bottom=0;right=0;overflow=hidden;" vertex="1" parent="phsG_xXQN8zb8gZ70Jwh-22">
          <mxGeometry width="40" height="25" as="geometry" />
        </mxCell>
        <mxCell id="phsG_xXQN8zb8gZ70Jwh-24" style="shape=partialRectangle;html=1;whiteSpace=wrap;collapsible=0;dropTarget=0;pointerEvents=0;fillColor=none;top=0;left=0;bottom=0;right=0;points=[[0,0.5],[1,0.5]];portConstraint=eastwest;" vertex="1" parent="phsG_xXQN8zb8gZ70Jwh-1">
          <mxGeometry y="204" width="40" height="26" as="geometry" />
        </mxCell>
        <mxCell id="phsG_xXQN8zb8gZ70Jwh-25" style="shape=partialRectangle;html=1;whiteSpace=wrap;connectable=0;fillColor=none;top=0;left=0;bottom=0;right=0;overflow=hidden;" vertex="1" parent="phsG_xXQN8zb8gZ70Jwh-24">
          <mxGeometry width="40" height="26" as="geometry" />
        </mxCell>
        <mxCell id="phsG_xXQN8zb8gZ70Jwh-26" value="table" style="text;strokeColor=none;fillColor=none;html=1;fontSize=17;fontStyle=0;verticalAlign=middle;align=center;" vertex="1" parent="1">
          <mxGeometry x="205" y="60" width="70" height="20" as="geometry" />
        </mxCell>
        <mxCell id="phsG_xXQN8zb8gZ70Jwh-28" value="key.hashCode() &lt;br&gt;&amp;amp; capacity - 1" style="text;html=1;strokeColor=none;fillColor=none;align=center;verticalAlign=middle;whiteSpace=wrap;rounded=0;fontSize=14;" vertex="1" parent="1">
          <mxGeometry x="260" y="109" width="190" height="31" as="geometry" />
        </mxCell>
        <mxCell id="phsG_xXQN8zb8gZ70Jwh-31" value="" style="shape=table;html=1;whiteSpace=wrap;startSize=0;container=1;collapsible=0;childLayout=tableLayout;fontSize=14;" vertex="1" parent="1">
          <mxGeometry x="310" y="177" width="190" height="25" as="geometry" />
        </mxCell>
        <mxCell id="phsG_xXQN8zb8gZ70Jwh-32" value="" style="shape=partialRectangle;html=1;whiteSpace=wrap;collapsible=0;dropTarget=0;pointerEvents=0;fillColor=none;top=0;left=0;bottom=0;right=0;points=[[0,0.5],[1,0.5]];portConstraint=eastwest;" vertex="1" parent="phsG_xXQN8zb8gZ70Jwh-31">
          <mxGeometry width="190" height="25" as="geometry" />
        </mxCell>
        <mxCell id="phsG_xXQN8zb8gZ70Jwh-47" style="shape=partialRectangle;html=1;whiteSpace=wrap;connectable=0;fillColor=none;top=0;left=0;bottom=0;right=0;overflow=hidden;" vertex="1" parent="phsG_xXQN8zb8gZ70Jwh-32">
          <mxGeometry width="27" height="25" as="geometry" />
        </mxCell>
        <mxCell id="phsG_xXQN8zb8gZ70Jwh-46" style="shape=partialRectangle;html=1;whiteSpace=wrap;connectable=0;fillColor=none;top=0;left=0;bottom=0;right=0;overflow=hidden;" vertex="1" parent="phsG_xXQN8zb8gZ70Jwh-32">
          <mxGeometry x="27" width="27" height="25" as="geometry" />
        </mxCell>
        <mxCell id="phsG_xXQN8zb8gZ70Jwh-45" style="shape=partialRectangle;html=1;whiteSpace=wrap;connectable=0;fillColor=none;top=0;left=0;bottom=0;right=0;overflow=hidden;" vertex="1" parent="phsG_xXQN8zb8gZ70Jwh-32">
          <mxGeometry x="54" width="27" height="25" as="geometry" />
        </mxCell>
        <mxCell id="phsG_xXQN8zb8gZ70Jwh-44" style="shape=partialRectangle;html=1;whiteSpace=wrap;connectable=0;fillColor=none;top=0;left=0;bottom=0;right=0;overflow=hidden;" vertex="1" parent="phsG_xXQN8zb8gZ70Jwh-32">
          <mxGeometry x="81" width="28" height="25" as="geometry" />
        </mxCell>
        <mxCell id="phsG_xXQN8zb8gZ70Jwh-33" value="" style="shape=partialRectangle;html=1;whiteSpace=wrap;connectable=0;fillColor=none;top=0;left=0;bottom=0;right=0;overflow=hidden;" vertex="1" parent="phsG_xXQN8zb8gZ70Jwh-32">
          <mxGeometry x="109" width="27" height="25" as="geometry" />
        </mxCell>
        <mxCell id="phsG_xXQN8zb8gZ70Jwh-34" value="" style="shape=partialRectangle;html=1;whiteSpace=wrap;connectable=0;fillColor=none;top=0;left=0;bottom=0;right=0;overflow=hidden;" vertex="1" parent="phsG_xXQN8zb8gZ70Jwh-32">
          <mxGeometry x="136" width="27" height="25" as="geometry" />
        </mxCell>
        <mxCell id="phsG_xXQN8zb8gZ70Jwh-35" value="" style="shape=partialRectangle;html=1;whiteSpace=wrap;connectable=0;fillColor=#f8cecc;top=0;left=0;bottom=0;right=0;overflow=hidden;strokeColor=#b85450;" vertex="1" parent="phsG_xXQN8zb8gZ70Jwh-32">
          <mxGeometry x="163" width="27" height="25" as="geometry" />
        </mxCell>
        <mxCell id="phsG_xXQN8zb8gZ70Jwh-59" style="edgeStyle=orthogonalEdgeStyle;rounded=0;orthogonalLoop=1;jettySize=auto;html=1;exitX=1;exitY=0.5;exitDx=0;exitDy=0;entryX=0;entryY=0.5;entryDx=0;entryDy=0;fontSize=14;" edge="1" parent="1" source="phsG_xXQN8zb8gZ70Jwh-6" target="phsG_xXQN8zb8gZ70Jwh-32">
          <mxGeometry relative="1" as="geometry" />
        </mxCell>
        <mxCell id="phsG_xXQN8zb8gZ70Jwh-50" value="" style="shape=table;html=1;whiteSpace=wrap;startSize=0;container=1;collapsible=0;childLayout=tableLayout;fontSize=14;" vertex="1" parent="1">
          <mxGeometry x="311" y="254" width="180" height="25" as="geometry" />
        </mxCell>
        <mxCell id="phsG_xXQN8zb8gZ70Jwh-51" value="" style="shape=partialRectangle;html=1;whiteSpace=wrap;collapsible=0;dropTarget=0;pointerEvents=0;fillColor=none;top=0;left=0;bottom=0;right=0;points=[[0,0.5],[1,0.5]];portConstraint=eastwest;" vertex="1" parent="phsG_xXQN8zb8gZ70Jwh-50">
          <mxGeometry width="180" height="25" as="geometry" />
        </mxCell>
        <mxCell id="phsG_xXQN8zb8gZ70Jwh-52" style="shape=partialRectangle;html=1;whiteSpace=wrap;connectable=0;fillColor=none;top=0;left=0;bottom=0;right=0;overflow=hidden;" vertex="1" parent="phsG_xXQN8zb8gZ70Jwh-51">
          <mxGeometry width="25" height="25" as="geometry" />
        </mxCell>
        <mxCell id="phsG_xXQN8zb8gZ70Jwh-53" style="shape=partialRectangle;html=1;whiteSpace=wrap;connectable=0;fillColor=none;top=0;left=0;bottom=0;right=0;overflow=hidden;" vertex="1" parent="phsG_xXQN8zb8gZ70Jwh-51">
          <mxGeometry x="25" width="27" height="25" as="geometry" />
        </mxCell>
        <mxCell id="phsG_xXQN8zb8gZ70Jwh-54" style="shape=partialRectangle;html=1;whiteSpace=wrap;connectable=0;fillColor=none;top=0;left=0;bottom=0;right=0;overflow=hidden;" vertex="1" parent="phsG_xXQN8zb8gZ70Jwh-51">
          <mxGeometry x="52" width="25" height="25" as="geometry" />
        </mxCell>
        <mxCell id="phsG_xXQN8zb8gZ70Jwh-55" style="shape=partialRectangle;html=1;whiteSpace=wrap;connectable=0;fillColor=none;top=0;left=0;bottom=0;right=0;overflow=hidden;" vertex="1" parent="phsG_xXQN8zb8gZ70Jwh-51">
          <mxGeometry x="77" width="26" height="25" as="geometry" />
        </mxCell>
        <mxCell id="phsG_xXQN8zb8gZ70Jwh-56" value="" style="shape=partialRectangle;html=1;whiteSpace=wrap;connectable=0;fillColor=none;top=0;left=0;bottom=0;right=0;overflow=hidden;" vertex="1" parent="phsG_xXQN8zb8gZ70Jwh-51">
          <mxGeometry x="103" width="25" height="25" as="geometry" />
        </mxCell>
        <mxCell id="phsG_xXQN8zb8gZ70Jwh-57" value="" style="shape=partialRectangle;html=1;whiteSpace=wrap;connectable=0;fillColor=none;top=0;left=0;bottom=0;right=0;overflow=hidden;" vertex="1" parent="phsG_xXQN8zb8gZ70Jwh-51">
          <mxGeometry x="128" width="27" height="25" as="geometry" />
        </mxCell>
        <mxCell id="phsG_xXQN8zb8gZ70Jwh-58" value="" style="shape=partialRectangle;html=1;whiteSpace=wrap;connectable=0;fillColor=none;top=0;left=0;bottom=0;right=0;overflow=hidden;" vertex="1" parent="phsG_xXQN8zb8gZ70Jwh-51">
          <mxGeometry x="155" width="25" height="25" as="geometry" />
        </mxCell>
        <mxCell id="phsG_xXQN8zb8gZ70Jwh-60" style="rounded=0;orthogonalLoop=1;jettySize=auto;html=1;exitX=1;exitY=0.5;exitDx=0;exitDy=0;entryX=0;entryY=0.5;entryDx=0;entryDy=0;fontSize=14;" edge="1" parent="1" source="phsG_xXQN8zb8gZ70Jwh-20" target="phsG_xXQN8zb8gZ70Jwh-51">
          <mxGeometry relative="1" as="geometry" />
        </mxCell>
        <mxCell id="phsG_xXQN8zb8gZ70Jwh-62" style="edgeStyle=none;rounded=0;orthogonalLoop=1;jettySize=auto;html=1;exitX=0;exitY=0.5;exitDx=0;exitDy=0;fontSize=14;" edge="1" parent="1" source="phsG_xXQN8zb8gZ70Jwh-61" target="phsG_xXQN8zb8gZ70Jwh-6">
          <mxGeometry relative="1" as="geometry" />
        </mxCell>
        <mxCell id="phsG_xXQN8zb8gZ70Jwh-64" style="edgeStyle=none;rounded=0;orthogonalLoop=1;jettySize=auto;html=1;exitX=0.5;exitY=1;exitDx=0;exitDy=0;entryX=0.933;entryY=-0.067;entryDx=0;entryDy=0;entryPerimeter=0;fontSize=14;" edge="1" parent="1" source="phsG_xXQN8zb8gZ70Jwh-61" target="phsG_xXQN8zb8gZ70Jwh-32">
          <mxGeometry relative="1" as="geometry" />
        </mxCell>
        <mxCell id="phsG_xXQN8zb8gZ70Jwh-61" value="key/value" style="rounded=0;whiteSpace=wrap;html=1;fontSize=14;fillColor=#f8cecc;strokeColor=#b85450;" vertex="1" parent="1">
          <mxGeometry x="480" y="100" width="80" height="29" as="geometry" />
        </mxCell>
        <mxCell id="phsG_xXQN8zb8gZ70Jwh-66" style="edgeStyle=none;rounded=0;orthogonalLoop=1;jettySize=auto;html=1;exitX=0.5;exitY=0;exitDx=0;exitDy=0;entryX=-0.067;entryY=0.103;entryDx=0;entryDy=0;entryPerimeter=0;fontSize=14;" edge="1" parent="1" source="phsG_xXQN8zb8gZ70Jwh-65" target="phsG_xXQN8zb8gZ70Jwh-16">
          <mxGeometry relative="1" as="geometry" />
        </mxCell>
        <mxCell id="phsG_xXQN8zb8gZ70Jwh-67" style="edgeStyle=none;rounded=0;orthogonalLoop=1;jettySize=auto;html=1;exitX=0.5;exitY=1;exitDx=0;exitDy=0;entryX=-0.067;entryY=1.077;entryDx=0;entryDy=0;entryPerimeter=0;fontSize=14;" edge="1" parent="1" source="phsG_xXQN8zb8gZ70Jwh-65" target="phsG_xXQN8zb8gZ70Jwh-24">
          <mxGeometry relative="1" as="geometry" />
        </mxCell>
        <mxCell id="phsG_xXQN8zb8gZ70Jwh-65" value="Capacity" style="text;html=1;strokeColor=none;fillColor=none;align=center;verticalAlign=middle;whiteSpace=wrap;rounded=0;fontSize=14;" vertex="1" parent="1">
          <mxGeometry x="100" y="202" width="60" height="20" as="geometry" />
        </mxCell>
        <mxCell id="phsG_xXQN8zb8gZ70Jwh-68" value="Node(linked list)" style="text;html=1;strokeColor=none;fillColor=none;align=center;verticalAlign=middle;whiteSpace=wrap;rounded=0;fontSize=14;" vertex="1" parent="1">
          <mxGeometry x="530" y="179.5" width="120" height="20" as="geometry" />
        </mxCell>
        <mxCell id="phsG_xXQN8zb8gZ70Jwh-69" value="TreeNode(red-black tree)" style="text;html=1;strokeColor=none;fillColor=none;align=center;verticalAlign=middle;whiteSpace=wrap;rounded=0;fontSize=14;" vertex="1" parent="1">
          <mxGeometry x="520" y="256.5" width="160" height="20" as="geometry" />
        </mxCell>
      </root>
    </mxGraphModel>
  </diagram>
</mxfile>
